<?xml version="1.0" encoding="utf-8"?>
<!-- Generator: Adobe Illustrator 19.0.0, SVG Export Plug-In . SVG Version: 6.00 Build 0)  -->
<!DOCTYPE svg PUBLIC "-//W3C//DTD SVG 1.1//EN" "http://www.w3.org/Graphics/SVG/1.1/DTD/svg11.dtd">
<svg version="1.1" id="Layer_1" xmlns="http://www.w3.org/2000/svg" xmlns:xlink="http://www.w3.org/1999/xlink" x="0px" y="0px"
	 viewBox="0 0 35 44" enable-background="new 0 0 35 44" xml:space="preserve">
<path id="XMLID_30_" fill="#E6E6E6" stroke="#307699" stroke-width="2" stroke-miterlimit="10" d="M32.2,41.2H2c-0.6,0-1-0.5-1-1
	V6.4c0-0.6,0.5-1,1-1h30.2c0.6,0,1,0.5,1,1v33.8C33.2,40.8,32.8,41.2,32.2,41.2z"/>
<rect id="XMLID_29_" x="4.7" y="7.9" fill="#FFFFFF" width="24.7" height="29.7"/>
<path id="XMLID_28_" fill="#FFFFFF" stroke="#307699" stroke-width="2" stroke-miterlimit="10" d="M13.3,4.7c0,0,0,2.2-1.8,2.2
	C10.1,6.9,8.9,9,8.9,10h16.4c0-1-1.2-3.1-2.6-3.1C21,6.9,20.9,5,20.9,5c0-2.1-1.7-3.9-3.8-3.9S13.3,2.6,13.3,4.7z"/>
<circle id="XMLID_27_" fill="#8DC5D8" cx="17.4" cy="5" r="1.4"/>
<g id="XMLID_24_">
	<path id="XMLID_25_" fill="#8DC5D8" d="M23.4,20.6l-5.6,5.7l-1.1,1.1c-0.1,0.1-0.3,0.2-0.5,0.2c-0.2,0-0.4-0.1-0.5-0.2l-1.1-1.1
		l-2.8-2.8c-0.1-0.1-0.2-0.3-0.2-0.5s0.1-0.4,0.2-0.5l1.1-1.1c0.1-0.1,0.3-0.2,0.5-0.2s0.4,0.1,0.5,0.2l2.3,2.3l5.1-5.2
		c0.1-0.1,0.3-0.2,0.5-0.2c0.2,0,0.4,0.1,0.5,0.2l1.1,1.1c0.1,0.1,0.2,0.3,0.2,0.5C23.7,20.3,23.6,20.5,23.4,20.6z"/>
</g>
<ellipse id="XMLID_23_" fill="none" stroke="#8DC5D8" stroke-miterlimit="10" cx="17.1" cy="22.9" rx="9.6" ry="9.6"/>
<line id="XMLID_1_" opacity="0.31" fill="#E6E6E6" stroke="#307699" stroke-miterlimit="10" x1="3" y1="42.5" x2="32" y2="42.5"/>
</svg>
